<?xml version="1.0" encoding="UTF-8" standalone="no"?><!DOCTYPE svg PUBLIC "-//W3C//DTD SVG 1.1//EN" "http://www.w3.org/Graphics/SVG/1.1/DTD/svg11.dtd"><svg width="100%" height="100%" viewBox="0 0 1667 1250" version="1.1" xmlns="http://www.w3.org/2000/svg" xmlns:xlink="http://www.w3.org/1999/xlink" xml:space="preserve" xmlns:serif="http://www.serif.com/" style="fill-rule:evenodd;clip-rule:evenodd;stroke-linejoin:round;stroke-miterlimit:2;"><path d="M554.417,797.75l-33.459,54.875l-51.25,-13.708l7.125,-65.792l77.584,24.625Z" style="fill:#ffd200;fill-rule:nonzero;"/><path d="M956.25,239.625c0,0 2.125,31.875 -3.667,52.958c-1.933,6.933 -8.295,11.764 -15.492,11.764c-1.467,-0 -2.928,-0.201 -4.341,-0.597c-10.583,-3.083 -23.958,-10.292 -27.208,-27.25l-8.959,-28.083c-2.489,-11.896 2.845,-24.139 13.25,-30.417c18.292,-12.583 46.084,2.125 46.417,21.625Z" style="fill:#f4a28c;fill-rule:nonzero;"/><path d="M908.333,251.583l-50.791,91.625l52.5,24.375l15.458,-74.541l-17.167,-41.459Z" style="fill:#f4a28c;fill-rule:nonzero;"/><path d="M893.25,234.25l-1.375,41.042c9.579,3.938 20.707,0.515 26.417,-8.125c5.955,-8.729 6.185,-20.208 0.583,-29.167c15.956,2.705 32.076,4.334 48.25,4.875c3.333,-0 10.583,1.583 11.25,-12.917c0,0 5.875,-23.25 -10.292,-29.166c-16.166,-5.917 -76.208,0.125 -74.833,33.458Z" style="fill:#24285b;fill-rule:nonzero;"/><path d="M956.542,258.875l9.125,15.667l-10.25,2.375l1.125,-18.042Z" style="fill:#f4a28c;fill-rule:nonzero;"/><path d="M533.917,931.417c-0,-0 -18.625,4.833 -21.5,20.833c-2.875,16 -19.209,18.917 -22,3.917c-2.792,-15 19.541,-51.084 19.541,-51.084l23.375,3.25l0.584,23.084Z" style="fill:#3962c7;fill-rule:nonzero;"/><path d="M692.583,797.875c0,0 19.542,150 -158.666,108l-0,27.458c-0,0 44.083,36.667 116.083,20.834c26.738,-6.169 51.72,-18.353 73.042,-35.625l71.708,-57.209l-9.667,-48.833l-63,-29.75l-29.5,15.125Z" style="fill:#24285b;fill-rule:nonzero;"/><circle cx="1247.04" cy="251.583" r="123.667" style="fill:#ffd200;"/><circle cx="1247.04" cy="251.583" r="123.667" style="fill-opacity:0.08;"/><path d="M828.667,525.833c-0,0 120.583,161.667 214.25,213.792c93.666,52.125 272.958,-227.125 272.958,-227.125l-34.375,-25.458l-196.292,149.208c0,0 -112.833,-253.542 -198.791,-250.833c-85.959,2.708 -94.75,93.75 -57.75,140.416Z" style="fill:#3962c7;fill-rule:nonzero;"/><path d="M828.667,525.833c-0,0 120.583,161.667 214.25,213.792c93.666,52.125 272.958,-227.125 272.958,-227.125l-34.375,-25.458l-196.292,149.208c0,0 -112.833,-253.542 -198.791,-250.833c-85.959,2.708 -94.75,93.75 -57.75,140.416Z" style="fill:#fff;fill-opacity:0.46;fill-rule:nonzero;"/><ellipse cx="807.958" cy="1061.71" rx="497.917" ry="71.583" style="fill:#e6e6e6;fill-opacity:0.45;"/><path d="M851.625,334.625l58.583,26.75c48.353,23.871 77.668,74.826 74,128.625c-2.083,31.958 -9.166,47.375 -19.25,92.958c-12.083,54.792 -11.041,112.209 -57.458,143.75c-34.75,23.625 -80.75,62 -91.125,104.875l-175.417,-84c0,0 -77.625,-426.333 210.667,-412.958Z" style="fill:#3962c7;fill-rule:nonzero;"/><path d="M862.5,400.25c0,0 97.583,93 -20.375,205.875c-117.958,112.875 -77.958,-156.125 20.375,-205.875Z" style="fill-opacity:0.08;fill-rule:nonzero;"/><path d="M958.375,634.208c0,-86.259 -70.032,-156.291 -156.292,-156.291l-264.083,-0c-86.26,-0 -156.292,70.032 -156.292,156.291l0,12.834c0,86.259 70.032,156.291 156.292,156.291l264.083,0c86.26,0 156.292,-70.032 156.292,-156.291l-0,-12.834Z" style="fill:#ffd200;"/><path d="M583.083,803.375l109.959,0c-0,0 -115.417,-144.333 -47.084,-304.833c0,-0 -122.583,-9.75 -121.458,-14.084c1.125,-4.333 6.417,124.709 6.417,124.709l52.166,194.208Z" style="fill-opacity:0.08;fill-rule:nonzero;"/><path d="M759.875,338c0,0 -200,23.958 -292.125,79.167c-92.125,55.208 60.75,350 60.75,350l50,-21.917l-42.458,-239.792c-0,0 276.041,28.709 316.666,-47.166c40.625,-75.875 -34.041,-129.125 -92.833,-120.292Z" style="fill:#3962c7;fill-rule:nonzero;"/><path d="M759.875,338c0,0 -200,23.958 -292.125,79.167c-92.125,55.208 60.75,350 60.75,350l50,-21.917l-42.458,-239.792c-0,0 276.041,28.709 316.666,-47.166c40.625,-75.875 -34.041,-129.125 -92.833,-120.292Z" style="fill:#fff;fill-opacity:0.46;fill-rule:nonzero;"/><path d="M940.583,1005.96c0,0 16.667,9.542 30.042,0c13.375,-9.541 27,0 18.5,12.5c-8.5,12.5 -49.583,23 -49.583,23l-14.542,-18.666l15.583,-16.834Z" style="fill:#3962c7;fill-rule:nonzero;"/><path d="M1281.5,486.958c0,0 -2.917,-52.666 7.75,-55.833c10.667,-3.167 15.625,22.375 15.625,22.375c0,0 12.5,-44.917 35.792,-39.375c23.291,5.542 -24.792,98.375 -24.792,98.375l-34.375,-25.542Z" style="fill:#f4a28c;fill-rule:nonzero;"/><path d="M531.125,765c0,0 -4.167,58.333 22.333,56.583c3.179,-0.191 6.318,-0.808 9.334,-1.833c15.663,-5.628 26.172,-20.569 26.172,-37.213c-0,-5.188 -1.022,-10.326 -3.006,-15.12l-7.625,-19.084l-47.208,16.667Z" style="fill:#f4a28c;fill-rule:nonzero;"/><path d="M1000.58,672.5c0,-27.09 -21.993,-49.083 -49.083,-49.083l-25.458,-0c-27.09,-0 -49.084,21.993 -49.084,49.083c0,27.09 21.994,49.083 49.084,49.083l25.458,0c27.09,0 49.083,-21.993 49.083,-49.083Z" style="fill:#ffd200;"/><path d="M1000.58,672.5c0,-27.09 -21.993,-49.083 -49.083,-49.083l-25.458,-0c-27.09,-0 -49.084,21.993 -49.084,49.083c0,27.09 21.994,49.083 49.084,49.083l25.458,0c27.09,0 49.083,-21.993 49.083,-49.083Z" style="fill:#fff;fill-opacity:0.35;"/><circle cx="857.708" cy="594.792" r="19.25" style="fill:#24285b;"/><circle cx="1247.04" cy="229.042" r="123.667" style="fill:#ffd200;"/><circle cx="1247.04" cy="229.042" r="83.208" style="fill:#fff;fill-opacity:0.46;"/><path d="M782.042,814.75c-0,0 120.166,43.667 165.958,187.25l-22.958,20.833c-0,0 -57.375,-94.375 -188.709,-167.291l45.709,-40.792Z" style="fill:#24285b;fill-rule:nonzero;"/><path d="M713.542,548.792c-0,-0 -31.792,-48.459 -10.834,-75.209c20.959,-26.75 76.625,37.5 76.625,37.5l-65.791,37.709Z" style="fill:#ffd200;fill-rule:nonzero;"/><ellipse cx="963.875" cy="672.5" rx="13.292" ry="21.708" style="fill-opacity:0.08;"/><ellipse cx="920.625" cy="672.5" rx="13.292" ry="21.708" style="fill-opacity:0.08;"/><path d="M752.458,799.625l33.5,54.875l51.25,-13.75l-7.166,-65.792l-77.584,24.667Z" style="fill:#ffd200;fill-rule:nonzero;"/><path d="M388.333,594.792c0,-0 -60.875,-18.542 -111.5,10.416c0,0 72.375,-10.083 104.875,35.459l6.625,-45.875Z" style="fill:#ffd200;fill-rule:nonzero;"/></svg>